<svg width="111.161" height="69.071" viewBox="0 0 111.161 69.071" xmlns="http://www.w3.org/2000/svg"><g id="svgGroup" stroke-linecap="round" fill-rule="evenodd" font-size="9pt" stroke="#000" stroke-width="0.25mm" fill="#000000" style="stroke:#000;stroke-width:0.25mm;fill:#000000"><path d="M 78.4 19.391 L 78.4 20.291 Q 78.497 21.939 79.158 27.818 A 826.696 826.696 0 0 0 79.2 28.191 Q 80.3 39.191 80.5 41.591 L 81.5 46.291 L 82.3 50.991 Q 84.497 46.597 84.4 45.892 A 0.35 0.35 0 0 0 84.4 45.891 Q 84.4 45.191 86.1 40.691 A 40.198 40.198 0 0 0 87.605 37.729 Q 88.25 36.309 88.674 35.019 A 18.467 18.467 0 0 0 89.2 33.091 Q 89.28 32.608 89.942 31.027 A 67.387 67.387 0 0 1 90.3 30.191 A 0.264 0.264 0 0 1 90.234 30.068 Q 90.139 29.708 90.615 28.674 A 13.266 13.266 0 0 1 90.8 28.291 Q 91.6 26.591 92.05 24.691 A 247.819 247.819 0 0 1 92.156 24.244 Q 92.506 22.778 92.55 22.691 Q 92.597 22.597 92.688 22.503 A 1.106 1.106 0 0 1 92.7 22.491 A 1.03 1.03 0 0 0 92.841 22.302 Q 93.045 21.968 93.319 21.211 A 21.082 21.082 0 0 0 93.5 20.691 Q 93.77 19.43 93.797 18.656 A 4.764 4.764 0 0 0 93.8 18.491 L 93.8 15.391 Q 93.8 15.134 94.165 13.784 A 71.745 71.745 0 0 1 94.3 13.291 L 94.2 10.991 Q 94.2 8.852 96.026 5.602 A 29.047 29.047 0 0 1 96.5 4.791 L 98.5 3.091 Q 98.5 2.191 100.05 1.991 Q 101.196 1.843 102.151 2.023 A 4.957 4.957 0 0 1 102.8 2.191 A 19.893 19.893 0 0 0 103.287 2.346 Q 103.953 2.549 104.281 2.584 A 1.162 1.162 0 0 0 104.4 2.591 Q 104.8 2.991 107.3 3.591 A 2.729 2.729 0 0 1 108.067 3.979 A 2.158 2.158 0 0 1 108.85 5.091 Q 109.193 6.168 109.2 8.011 A 20.363 20.363 0 0 1 109.2 8.091 L 108.5 15.891 Q 108.5 16.591 107.9 25.591 L 108 28.791 A 0.377 0.377 0 0 0 107.977 28.887 Q 107.911 29.318 107.902 31.43 A 170.381 170.381 0 0 0 107.9 32.191 L 107.9 37.391 L 107.9 39.291 L 108.2 43.091 A 0.077 0.077 0 0 0 108.144 43.164 Q 107.945 43.897 109.4 51.991 A 7.334 7.334 0 0 0 109.45 52.759 Q 109.588 54.021 110.101 56.447 A 120.213 120.213 0 0 0 110.45 58.041 A 32.974 32.974 0 0 1 110.911 60.483 Q 111.293 63.075 111.092 65.084 A 11.887 11.887 0 0 1 111 65.791 A 1.968 1.968 0 0 1 110.544 67.012 Q 110.005 67.707 108.827 68.336 A 11.75 11.75 0 0 1 108.1 68.691 Q 105.9 68.291 105.4 67.391 A 10.141 10.141 0 0 1 105.04 67.181 Q 104.527 66.868 104.344 66.649 A 0.685 0.685 0 0 1 104.3 66.591 L 103.5 65.591 Q 101.9 64.291 100.9 62.491 Q 100.296 61.886 99.99 60.835 A 6.289 6.289 0 0 1 99.9 60.491 Q 98.9 59.091 98.7 56.991 Q 98.5 54.891 97.95 54.041 A 9.759 9.759 0 0 1 97.436 53.152 A 7.558 7.558 0 0 1 97.1 52.391 Q 96 51.291 95.7 48.441 Q 95.4 45.591 95.1 43.491 A 23.709 23.709 0 0 1 95.106 42.928 Q 95.12 42.333 95.167 41.93 A 4.811 4.811 0 0 1 95.2 41.691 Q 94.9 40.891 94.85 40.491 A 10.439 10.439 0 0 0 94.792 40.094 Q 94.758 39.886 94.713 39.657 A 17.262 17.262 0 0 0 94.7 39.591 L 94.3 41.491 Q 94 41.991 93 45.391 L 90.9 51.891 L 89.1 58.191 Q 88.691 58.436 88.148 59.886 A 20.566 20.566 0 0 0 87.9 60.591 A 153.3 153.3 0 0 1 87.687 61.133 Q 86.981 62.916 86.85 63.091 Q 86.715 63.271 86.538 63.615 A 8.371 8.371 0 0 0 86.5 63.691 A 12.152 12.152 0 0 1 85.762 64.976 Q 85.325 65.634 84.84 66.147 A 7.223 7.223 0 0 1 84.7 66.291 A 8.099 8.099 0 0 1 83.444 67.256 Q 81.341 68.548 79.15 67.741 A 6.998 6.998 0 0 1 75.19 64.103 A 9.375 9.375 0 0 1 75 63.691 Q 74.357 62.13 73.968 61.58 A 1.96 1.96 0 0 0 73.9 61.491 Q 73.8 60.691 72.8 58.691 A 16.404 16.404 0 0 1 72.317 57.125 Q 72.099 56.281 71.922 55.299 A 34.834 34.834 0 0 1 71.7 53.891 Q 71.299 53.168 71.091 51.608 A 19.673 19.673 0 0 1 71 50.791 Q 70.5 49.891 70.3 48.191 Q 70.1 46.491 69.7 44.891 A 15.907 15.907 0 0 1 69.332 43.332 Q 69.183 42.539 69.082 41.635 A 30.092 30.092 0 0 1 69 40.791 Q 68.8 38.991 67.5 34.191 Q 67.258 33.949 66.887 32.798 A 24.297 24.297 0 0 1 66.7 32.191 Q 66.511 33.701 66.501 33.919 A 0.458 0.458 0 0 0 66.5 33.941 Q 66.5 34.071 65.891 37.742 A 1583.799 1583.799 0 0 1 65.7 38.891 A 0.199 0.199 0 0 1 65.741 38.978 Q 65.863 39.432 65.6 41.891 Q 65 43.791 64.9 45.891 A 100.961 100.961 0 0 0 64.589 48.157 Q 64.139 51.757 64.195 53.838 A 15.22 15.22 0 0 0 64.2 53.991 A 3.189 3.189 0 0 1 64.346 54.697 Q 64.389 55.144 64.328 55.657 A 6.215 6.215 0 0 1 64.25 56.141 Q 64 57.391 63.85 58.641 Q 63.7 59.891 63.4 60.891 L 63.4 61.591 A 67.37 67.37 0 0 0 63.326 62.409 Q 63.139 64.613 63.281 65.045 A 0.343 0.343 0 0 0 63.3 65.091 A 3.654 3.654 0 0 1 63.2 65.906 Q 63.02 66.687 62.52 67.656 A 12.351 12.351 0 0 1 62.45 67.791 Q 61.665 69.268 60.07 69.04 A 3.581 3.581 0 0 1 59.8 68.991 A 63.987 63.987 0 0 1 58.695 68.705 Q 56.506 68.116 56.1 67.791 Q 55.378 66.609 55.13 65.6 A 4.229 4.229 0 0 1 55 64.591 L 55 59.791 L 55.2 57.991 Q 55.1 57.691 55.3 55.691 A 0.188 0.188 0 0 1 55.267 55.608 Q 55.2 55.312 55.2 54.041 A 12.968 12.968 0 0 0 55.176 53.228 Q 55.126 52.426 54.968 51.893 A 3.04 3.04 0 0 0 54.9 51.691 L 54.9 50.691 Q 54.715 47.547 54.829 46.84 A 0.971 0.971 0 0 1 54.85 46.741 A 1.458 1.458 0 0 0 54.887 46.549 Q 54.957 46.011 54.847 44.775 A 30.414 30.414 0 0 0 54.8 44.291 Q 55.131 44.291 55.256 43.231 A 9.244 9.244 0 0 0 55.3 42.741 Q 55.4 41.191 55.6 39.391 L 56.3 39.091 A 0.141 0.141 0 0 1 56.248 39.006 Q 56.127 38.634 56.186 36.697 A 63.877 63.877 0 0 1 56.2 36.291 A 151.33 151.33 0 0 0 56.248 35.951 Q 56.365 35.118 56.65 33.054 A 4670.945 4670.945 0 0 0 56.7 32.691 Q 57.1 29.791 57.05 28.741 A 1.97 1.97 0 0 1 57.048 28.647 Q 57.048 27.845 57.654 26.384 A 20.752 20.752 0 0 1 58.1 25.391 Q 59.78 20.35 60.212 18.254 A 7.881 7.881 0 0 0 60.35 17.391 Q 60.49 15.803 60.848 14.565 A 10.615 10.615 0 0 1 60.9 14.391 A 15.119 15.119 0 0 1 61.433 11.802 Q 61.894 10.291 62.667 9.092 A 9.348 9.348 0 0 1 62.8 8.891 A 4.919 4.919 0 0 1 63.321 7.743 A 3.14 3.14 0 0 1 65.4 6.291 L 66.6 5.391 L 66.7 5.391 Q 68.6 3.991 73.5 4.991 Q 77.7 6.891 78.1 9.691 A 2.795 2.795 0 0 0 78.023 10.098 Q 77.811 11.787 78.256 17.602 A 232.304 232.304 0 0 0 78.4 19.391 Z M 31.3 2.791 L 36.4 5.491 A 19.532 19.532 0 0 1 36.991 6.115 Q 37.95 7.166 39.732 9.29 A 320.502 320.502 0 0 1 40.9 10.691 A 40.938 40.938 0 0 1 44.593 19.439 A 35.782 35.782 0 0 1 45.6 24.091 A 47.882 47.882 0 0 1 45.643 25.212 Q 45.7 27.181 45.7 30.791 Q 44.8 39.891 42.4 43.991 A 6.661 6.661 0 0 1 42.187 44.865 Q 41.898 45.795 41.3 46.991 A 0.425 0.425 0 0 1 41.26 47.12 Q 41.068 47.577 39.95 49.441 Q 38.6 51.691 36.9 53.841 Q 35.511 55.597 34.923 56.386 A 18.993 18.993 0 0 0 34.7 56.691 Q 30.6 60.491 30.1 60.891 Q 28.225 62.277 27.679 62.599 A 1.115 1.115 0 0 1 27.501 62.69 Q 20.5 66.191 19.566 66.721 A 2.107 2.107 0 0 0 19.45 66.791 A 1.567 1.567 0 0 1 19.18 66.926 Q 18.563 67.178 17 67.491 A 22.003 22.003 0 0 1 16.337 67.55 Q 14.016 67.719 13.4 67.191 A 8.482 8.482 0 0 1 10.998 65.591 A 10.037 10.037 0 0 1 10.5 65.091 A 0.664 0.664 0 0 1 10.296 64.986 Q 9.862 64.685 8.964 63.571 A 28.551 28.551 0 0 1 8.9 63.491 A 155.132 155.132 0 0 1 8.349 63.076 Q 7.263 62.253 7.1 62.091 A 6.413 6.413 0 0 1 6.459 60.841 Q 5.909 59.458 5.53 57.247 A 41.823 41.823 0 0 1 5.2 54.891 Q 5.101 54.494 5.198 52.232 A 89.769 89.769 0 0 1 5.2 52.191 A 1.308 1.308 0 0 1 5.108 51.932 Q 5 51.512 5 50.741 Q 5 49.88 5.201 48.785 A 17.247 17.247 0 0 1 5.3 48.291 Q 5.6 46.891 5.6 44.991 Q 5.6 43.091 6.2 40.091 Q 5.8 39.491 6.3 35.591 A 3.068 3.068 0 0 0 6.599 34.796 Q 6.75 34.152 6.707 33.315 A 7.878 7.878 0 0 0 6.7 33.191 A 64.619 64.619 0 0 1 6.656 32.478 Q 6.611 31.663 6.602 31.067 A 18.68 18.68 0 0 1 6.6 30.791 A 143.396 143.396 0 0 1 6.607 29.308 Q 6.633 26.78 6.758 26.071 A 1.304 1.304 0 0 1 6.8 25.891 A 1.868 1.868 0 0 0 6.864 25.623 Q 6.966 25.039 6.918 23.853 A 25.058 25.058 0 0 0 6.9 23.491 Q 7.484 22.907 7.878 19.01 A 60.857 60.857 0 0 0 7.9 18.791 A 11.146 11.146 0 0 1 7.572 18.795 Q 5.048 18.795 3.509 17.608 A 4.938 4.938 0 0 1 2.8 16.941 A 10.785 10.785 0 0 1 1.521 15.089 Q 0.993 14.14 0.543 12.974 A 23.539 23.539 0 0 1 0 11.391 A 11.789 11.789 0 0 1 0.213 10.379 A 10.711 10.711 0 0 1 0.25 10.241 A 63.116 63.116 0 0 0 0.355 9.849 Q 0.396 9.695 0.433 9.555 A 33.343 33.343 0 0 0 0.5 9.291 A 2.23 2.23 0 0 1 0.638 8.905 Q 0.741 8.68 0.9 8.441 Q 1.2 7.991 1.35 7.741 Q 1.463 7.552 1.775 7.25 A 8.452 8.452 0 0 1 2 7.041 A 32.202 32.202 0 0 1 2.218 6.846 Q 2.489 6.607 2.641 6.486 A 2.866 2.866 0 0 1 2.7 6.441 A 4.066 4.066 0 0 1 2.811 6.361 Q 3.053 6.192 3.6 5.841 A 60.394 60.394 0 0 0 3.882 5.658 Q 4.344 5.358 4.5 5.241 Q 4.687 5.1 5.443 4.61 A 109.94 109.94 0 0 1 5.55 4.541 Q 6.247 4.089 6.575 3.874 A 29.286 29.286 0 0 0 6.7 3.791 A 0.938 0.938 0 0 1 6.966 3.516 Q 7.386 3.216 8.3 3.041 Q 9.288 2.851 11.026 2.17 A 47.11 47.11 0 0 0 12.2 1.691 A 1.017 1.017 0 0 1 12.487 1.521 Q 13.238 1.187 15.707 0.611 A 103.62 103.62 0 0 1 16.9 0.341 A 14.138 14.138 0 0 1 19.957 0 A 13.836 13.836 0 0 1 25.3 1.091 Q 27.087 1.091 28.089 1.332 A 3.74 3.74 0 0 1 28.6 1.491 Q 29.506 2.306 30.987 2.711 A 9.008 9.008 0 0 0 31.3 2.791 Z M 20.4 18.291 L 19.9 21.991 L 19 31.191 A 2.156 2.156 0 0 1 18.997 31.28 Q 18.978 31.664 18.847 33.452 A 828.464 828.464 0 0 1 18.8 34.091 A 550.268 550.268 0 0 0 18.144 41.447 Q 17.3 51.741 17.3 57.591 Q 19.1 57.191 20.4 55.891 A 342.602 342.602 0 0 1 21.227 55.208 Q 23.808 53.083 24.257 52.814 A 0.675 0.675 0 0 1 24.3 52.791 L 25.7 51.491 Q 26.17 51.397 28.053 49.36 A 59.362 59.362 0 0 0 28.3 49.091 L 28.3 48.991 L 30.2 46.491 L 32.2 42.391 Q 33 41.291 34.1 37.091 Q 34.7 35.891 34.9 32.691 A 130.06 130.06 0 0 1 34.997 31.258 Q 35.122 29.562 35.247 28.646 A 12.222 12.222 0 0 1 35.3 28.291 Q 35.3 16.591 28.9 12.991 A 8.357 8.357 0 0 0 27.394 12.3 Q 26.406 11.968 25.448 11.968 A 5.5 5.5 0 0 0 23.9 12.191 A 2.676 2.676 0 0 0 23.231 12.289 Q 22.2 12.56 20.535 13.569 A 25.025 25.025 0 0 0 20.5 13.591 A 26.587 26.587 0 0 0 20.456 14.409 Q 20.406 15.667 20.401 17.78 A 203.264 203.264 0 0 0 20.4 18.291 Z" vector-effect="non-scaling-stroke"/></g></svg>